<svg xmlns="http://www.w3.org/2000/svg" width="493" height="740" viewBox="0 0 493 740"><rect width="100%" height="100%" fill="#DDDDDD"/><path fill="#999999" d="M136.19 338.83h8.17v49.89h-4.76q-1.1 0-1.84-.36-.75-.36-1.44-1.23l-26.04-33.26q.2 2.28.2 4.21v30.64h-8.17v-49.89h4.86q.59 0 1.02.05.43.06.76.21.33.16.64.45t.69.78l26.15 33.39q-.11-1.2-.17-2.38-.07-1.17-.07-2.17zm33.6 13.94q3.93 0 7.16 1.28 3.22 1.27 5.52 3.62 2.29 2.35 3.53 5.73 1.25 3.38 1.25 7.55 0 4.21-1.25 7.59-1.24 3.38-3.53 5.76-2.3 2.38-5.52 3.66-3.23 1.28-7.16 1.28-3.97 0-7.21-1.28t-5.54-3.66q-2.29-2.38-3.55-5.76t-1.26-7.59q0-4.17 1.26-7.55t3.55-5.73q2.3-2.35 5.54-3.62 3.24-1.28 7.21-1.28m0 29.91q4.42 0 6.54-2.96 2.12-2.97 2.12-8.7t-2.12-8.73-6.54-3q-4.49 0-6.64 3.02-2.16 3.02-2.16 8.71t2.16 8.68q2.15 2.98 6.64 2.98m51.4-43.85v49.89h-9.31v-49.89zm18.32 49.89h-8.52v-35.4h5.21q1.66 0 2.18 1.56l.55 2.62q.93-1.04 1.95-1.9 1.01-.86 2.17-1.48t2.48-.99q1.33-.36 2.92-.36 3.35 0 5.5 1.81 2.16 1.81 3.23 4.81.83-1.75 2.07-3.01t2.72-2.06q1.49-.79 3.16-1.17t3.36-.38q2.94 0 5.21.9 2.28.89 3.83 2.62 1.56 1.72 2.37 4.21.81 2.48.81 5.69v22.53h-8.52v-22.53q0-3.38-1.49-5.09-1.48-1.71-4.34-1.71-1.32 0-2.44.45t-1.96 1.3q-.85.84-1.33 2.12t-.48 2.93v22.53h-8.56v-22.53q0-3.55-1.43-5.17-1.43-1.63-4.19-1.63-1.87 0-3.47.92-1.61.91-2.99 2.5zm67.97-9.14v-5.97q-3.69.17-6.21.64-2.52.46-4.04 1.19-1.52.72-2.17 1.69-.66.96-.66 2.1 0 2.24 1.33 3.21t3.47.97q2.62 0 4.54-.95 1.91-.95 3.74-2.88m-18.01-18.6-1.52-2.72q6.11-5.59 14.7-5.59 3.1 0 5.55 1.02 2.45 1.01 4.14 2.82 1.69 1.82 2.57 4.33.88 2.52.88 5.52v22.36h-3.86q-1.21 0-1.86-.36-.66-.36-1.04-1.47l-.76-2.55q-1.34 1.21-2.62 2.12t-2.66 1.54q-1.38.62-2.95.94-1.57.33-3.46.33-2.25 0-4.14-.6-1.9-.61-3.28-1.81-1.38-1.21-2.14-3-.76-1.8-.76-4.18 0-1.34.45-2.67t1.47-2.54q1.01-1.21 2.64-2.28 1.62-1.07 3.98-1.86t5.5-1.29 7.18-.61v-2.07q0-3.55-1.52-5.26t-4.38-1.71q-2.07 0-3.43.49-1.37.48-2.4 1.08-1.04.61-1.88 1.09-.85.48-1.88.48-.9 0-1.52-.46-.62-.47-1-1.09m47.27 9.18q1.58 0 2.76-.43 1.17-.43 1.94-1.19.78-.76 1.18-1.83.39-1.07.39-2.35 0-2.62-1.57-4.15-1.57-1.54-4.7-1.54-3.14 0-4.71 1.54-1.57 1.53-1.57 4.15 0 1.24.39 2.31.4 1.07 1.18 1.85.77.78 1.96 1.21t2.75.43m9.62 20.15q0-1.04-.62-1.69-.62-.66-1.69-1.02t-2.5-.54q-1.43-.17-3.04-.25-1.6-.09-3.31-.16t-3.33-.28q-1.41.8-2.29 1.87t-.88 2.48q0 .93.46 1.74.47.81 1.49 1.4 1.01.59 2.64.91 1.62.33 3.96.33 2.38 0 4.11-.36 1.72-.36 2.84-1 1.13-.64 1.64-1.52.52-.88.52-1.91m-1.69-35.78h10.18v3.17q0 1.52-1.83 1.87l-3.17.58q.72 1.83.72 4.01 0 2.62-1.05 4.74t-2.92 3.61q-1.86 1.48-4.4 2.29-2.53.81-5.46.81-1.04 0-2.01-.1-.96-.11-1.89-.28-1.66 1-1.66 2.24 0 1.07.98 1.57.99.5 2.61.71t3.69.26 4.24.22q2.18.18 4.25.61t3.69 1.36 2.6 2.54q.99 1.6.99 4.12 0 2.34-1.16 4.55-1.15 2.21-3.35 3.94-2.19 1.72-5.38 2.77t-7.26 1.05q-4 0-6.97-.77-2.97-.78-4.93-2.07-1.97-1.3-2.93-2.99-.97-1.69-.97-3.51 0-2.49 1.5-4.16 1.5-1.68 4.12-2.68-1.41-.72-2.24-1.93t-.83-3.17q0-.8.3-1.64.29-.85.86-1.67.57-.83 1.43-1.57.86-.75 2.04-1.33-2.7-1.45-4.23-3.87-1.54-2.41-1.54-5.65 0-2.63 1.06-4.75 1.05-2.12 2.93-3.62t4.45-2.29q2.57-.8 5.61-.8 2.27 0 4.27.47 2 .46 3.66 1.36m22.29 12.42h16.07q0-1.66-.46-3.12-.47-1.47-1.4-2.57-.93-1.11-2.36-1.74-1.43-.64-3.33-.64-3.69 0-5.81 2.1-2.13 2.11-2.71 5.97m21.73 5.14h-21.91q.21 2.73.97 4.71t2 3.28q1.24 1.29 2.95 1.93t3.78.64 3.57-.49q1.5-.48 2.62-1.06 1.12-.59 1.97-1.07.84-.49 1.64-.49 1.07 0 1.58.8l2.45 3.1q-1.41 1.66-3.17 2.78t-3.67 1.79q-1.92.68-3.9.95-1.99.28-3.85.28-3.69 0-6.87-1.23-3.17-1.22-5.52-3.62-2.34-2.4-3.69-5.93-1.34-3.54-1.34-8.2 0-3.62 1.17-6.81t3.36-5.56q2.2-2.36 5.35-3.74 3.16-1.38 7.13-1.38 3.34 0 6.17 1.07t4.87 3.12q2.03 2.06 3.19 5.04 1.15 2.98 1.15 6.81 0 1.94-.41 2.61t-1.59.67"/></svg>